PathFileType	4	(X/Y/Z)	C:\Github\BTS_project\Data\sports2d_results\test6 Exam_2026-03-06_143334_tvc4_Sports2D\test6 Exam_2026-03-06_143334_tvc4_Sports2D_m_person00.trc
DataRate	CameraRate	NumFrames	NumMarkers	Units	OrigDataRate	OrigDataStartFrame	OrigNumFrames
30.0	30.0	9	22	m	30.0	0	112
Frame#	Time	Hip			RHip			RKnee			RAnkle			RBigToe			RSmallToe			RHeel			LHip			LKnee			LAnkle			LBigToe			LSmallToe			LHeel			Neck			Head			Nose			RShoulder			RElbow			RWrist			LShoulder			LElbow			LWrist			
		X1	Y1	Z1	X2	Y2	Z2	X3	Y3	Z3	X4	Y4	Z4	X5	Y5	Z5	X6	Y6	Z6	X7	Y7	Z7	X8	Y8	Z8	X9	Y9	Z9	X10	Y10	Z10	X11	Y11	Z11	X12	Y12	Z12	X13	Y13	Z13	X14	Y14	Z14	X15	Y15	Z15	X16	Y16	Z16	X17	Y17	Z17	X18	Y18	Z18	X19	Y19	Z19	X20	Y20	Z20	X21	Y21	Z21	X22	Y22	Z22
108	3.6164383561643834	1.2572294991821036	1.436026538134461	0.0301	1.1151970216670783	1.4061068559637742	0.0301	0.9852266839687069	0.7832554566692596	0.129	0.841794086563813	0.1862106937498811	0.023	0.8822699560847198	0.02358832729956271	0.2179	0.781574578144102	0.05383787704202431	0.1804	0.7638484193537582	0.09076594766051878	-0.0119	1.3588427339842466	1.3621100900923482	0.0301	1.4595086921288707	0.7265452285708727	0.129	1.3683536838579586	0.1719780376114975	0.023	1.3884210927999363	-0.005175261314689542	0.2179	1.4115234633953908	0.024549162219987826	0.1804	1.2168137414198827	0.07023105486915295	-0.0119	1.4034368228772478	2.339688832423867	0.0008	1.5118036008246498	2.6643707184098897	0.0655	1.5150412936663242	2.609400171880228	0.1076	1.1347279850724674	2.239722611660567	-0.01275	0.9622637688673229	1.8665478977791168	0.0702	1.311561810167985	1.8821226482637368	0.1076	1.5820707190453915	2.197761272277525	-0.01275	1.5845205070669828	1.806333674665034	0.0702	1.6206257493768028	1.8070863127865706	0.1076
109	3.6499238964992387	1.2985548433391092	1.4291757197970114	0.0301	1.1391735339438647	1.4057929492426269	0.0301	0.9847693076218497	0.7914592260203179	0.129	0.8361213856622606	0.18141705153324164	0.023	0.8792299013623925	0.018083235297368484	0.2179	0.7768869036244279	0.04411770116737106	0.1804	0.7705331737412209	0.08725620626402071	-0.0119	1.4390145310385278	1.3556585058849648	0.0301	1.4798507728840833	0.7379788026750286	0.129	1.3752917753625888	0.17477992306901471	0.023	1.3484789788054528	0.0074429004344919	0.2179	1.426394363616499	0.029383106035440816	0.1804	1.2281864457147196	0.07623533535030816	-0.0119	1.4208911993333608	2.34100893338113	0.0008	1.514522512812208	2.6978553641086416	0.0655	1.5447014774787102	2.5626157792501694	0.1076	1.1395010802463474	2.237511879631812	-0.01275	0.9738527153824182	1.868788902143456	0.0702	1.3130728760831687	1.8891964575162112	0.1076	1.643788959340285	2.1953738523996664	-0.01275	1.668403805296901	1.8268498587182789	0.0702	1.6143553240940158	1.8064072810500185	0.1076
110	3.6834094368340944	1.3176606814279896	1.4263358448562087	0.0301	1.1509742519387058	1.4152843753995172	0.0301	0.9862308190905913	0.8030063603278659	0.129	0.826306810928526	0.1829044127358861	0.023	0.8733708475126157	0.011720695098052182	0.2179	0.7685405311233773	0.03245932013644861	0.1804	0.7727597839247474	0.08959311111548679	-0.0119	1.4857568231929406	1.3612473009149724	0.0301	1.4873675498497578	0.7568625682606872	0.129	1.3810371526056362	0.1783803677657054	0.023	1.3157690928257961	0.023158163374823498	0.2179	1.4366813126821483	0.03691224962198825	0.1804	1.2407501918505104	0.07909629847870593	-0.0119	1.4195517346581397	2.347901653431525	0.0008	1.5047771497833902	2.7408163338653226	0.0655	1.5411627279435813	2.531688010175979	0.1076	1.1347702735970344	2.2392677210601217	-0.01275	0.9758056926503476	1.8700130444340193	0.0702	1.314682236834779	1.8911726860133546	0.1076	1.665170424736907	2.196536049455931	-0.01275	1.7036808417961888	1.8467068074024104	0.0702	1.61259062525654	1.8136562379045924	0.1076
111	3.7168949771689497	1.324389902714027	1.4250327239566831	0.0301	1.157384555750181	1.4235518814916133	0.0301	0.9893424882164888	0.8140749993927581	0.129	0.8150264188692364	0.1959182686074344	0.023	0.8670019729262247	0.011104007307684242	0.2179	0.7587049425909028	0.026317959145017	0.1804	0.7673725888637627	0.10050976976276692	-0.0119	1.4996304651580294	1.3667561744330978	0.0301	1.475363720632472	0.7764305120490345	0.129	1.3841418510876122	0.18478966033994254	0.023	1.3328689566333571	0.02666153754020665	0.2179	1.4555179875112025	0.03842739262034066	0.1804	1.2597824795478458	0.07326503148890917	-0.0119	1.4294723159286007	2.351299489548115	0.0008	1.511373992930447	2.7679572450594567	0.0655	1.5393472068809555	2.525074003951375	0.1076	1.135477760821778	2.246197019325752	-0.01275	0.9728578053560057	1.8690454315152971	0.0702	1.3098556267310546	1.8829157023854135	0.1076	1.6737036299332215	2.1957017258451508	-0.01275	1.7220446249813277	1.8476517190832096	0.0702	1.623411806214616	1.8159053809492913	0.1076
112	3.750380517503805	1.3287609100906332	1.4226683634183128	0.0301	1.1619479671059212	1.417289821518155	0.0301	0.9918113232973444	0.8204183801586057	0.129	0.8085431825637293	0.21640525940392907	0.023	0.8642767728617275	0.020579342232973325	0.2179	0.7517022849770847	0.03393344097533121	0.1804	0.7614487385821175	0.11627221482162334	-0.0119	1.4970801082611407	1.356656279009852	0.0301	1.457824170530229	0.7838801924049972	0.129	1.3830578902100372	0.19395623563801792	0.023	1.4149688243042395	0.0008775880297765833	0.2179	1.49813842914996	0.023095345006592726	0.1804	1.2845290085400913	0.05956100546609858	-0.0119	1.4544564156422048	2.3459563306988076	0.0008	1.5319273337142703	2.7652260098523884	0.0655	1.5521203903324035	2.524710782432342	0.1076	1.1441711159314445	2.2549889443961333	-0.01275	0.9694355555383918	1.8665629898380498	0.0702	1.2935551588541567	1.8674683844315574	0.1076	1.6919358392287625	2.1902284802120153	-0.01275	1.755609663337229	1.8338240655519924	0.0702	1.6514054832352314	1.8003749703503753	0.1076
113	3.7838660578386603	1.3354113422181189	1.4191400814975208	0.0301	1.1667603890599547	1.4027599028776636	0.0301	0.9923873163347802	0.8229942919285651	0.129	0.8090102875403534	0.231173962458469	0.023	0.8673501586677878	0.03303755360534093	0.2179	0.7502566421575029	0.05166792587618516	0.1804	0.7643025395323614	0.1307118103012962	-0.0119	1.495125061216241	1.3376889436591077	0.0301	1.4551227301195873	0.7776181142728007	0.129	1.3796355146572283	0.20118042249314402	0.023	1.508064190307648	-0.031799987992466694	0.2179	1.5532678043988795	0.008533599421071646	0.1804	1.3052207232593704	0.052740216351665134	-0.0119	1.4755700968385057	2.338879203067499	0.0008	1.546719255571132	2.7463390662290212	0.0655	1.5627142627733097	2.518260036214615	0.1076	1.1533458137310653	2.261292374508681	-0.01275	0.968415661420293	1.864495374075052	0.0702	1.27422552154975	1.8554960783185936	0.1076	1.715321290427824	2.183728488861883	-0.01275	1.7926207035204074	1.8224113617457551	0.0702	1.6863004188599853	1.7870030593298913	0.1076
114	3.8173515981735155	1.3442136783422773	1.4145158149241222	0.0301	1.171086907183144	1.3917890752204132	0.0301	0.9917326306195834	0.8233353605096717	0.129	0.8123471755052395	0.23019465591112764	0.023	0.8763175956263085	0.03979059244053415	0.2179	0.7564399032044946	0.06505193355156529	0.1804	0.7733352795733888	0.1384372334863207	-0.0119	1.5018585801659408	1.3260327042928604	0.0301	1.4690485740302441	0.768643149201397	0.129	1.383784480501835	0.20252792982573437	0.023	1.5595894338912244	-0.022475938211433115	0.2179	1.5987076081673444	0.028883979679884007	0.1804	1.3216693738093437	0.06540051311443457	-0.0119	1.4808542888652443	2.3379864028231863	0.0008	1.545069667423315	2.735214723403839	0.0655	1.5598245374318442	2.5108046871246694	0.1076	1.1563941269411284	2.2637294402478103	-0.01275	0.9696078104521668	1.8631165146821367	0.0702	1.2644149437621477	1.850464521953292	0.1076	1.7308826939623636	2.180526551769165	-0.01275	1.8090303729089507	1.8118843275679701	0.0702	1.7081540274388423	1.8009433899430158	0.1076
115	3.8508371385083713	1.352799651271534	1.4044226503327166	0.0301	1.172756687914615	1.3803241646659825	0.0301	0.989959139872203	0.820599179658767	0.129	0.8134331942507528	0.21707333928841543	0.023	0.8859381420901041	0.040630577899287625	0.2179	0.7671790213242834	0.0640583719162849	0.1804	0.7804302295529079	0.13522370599402503	-0.0119	1.5150578120272769	1.32070716504135	0.0301	1.4870765400545396	0.7651809071536931	0.129	1.4015647245578429	0.19949191312703435	0.023	1.5750897308181526	0.026583484963791735	0.2179	1.624956702461427	0.07170619069413886	0.1804	1.3395279055050469	0.08642447159103017	-0.0119	1.4733278877884157	2.3414867867467573	0.0008	1.533017071098023	2.737667703012121	0.0655	1.5535800455908386	2.5095959379355284	0.1076	1.1522174191869938	2.260765392232154	-0.01275	0.9705600742352909	1.8607138584737113	0.0702	1.2656529651758044	1.8481672717487625	0.1076	1.734392495784578	2.180035241493549	-0.01275	1.8082731050163003	1.7861155239170736	0.0702	1.7082342240616981	1.8349214079218301	0.1076
116	3.8843226788432266	1.3585324005274406	1.387462794854129	0.0301	1.1706869166851204	1.3633536675154418	0.0301	0.9870684709216943	0.8153307010793807	0.129	0.8123958370139243	0.2045569142066216	0.023	0.8897071029096391	0.0382135799409752	0.2179	0.774718653391373	0.05282790419866904	0.1804	0.7816273319851387	0.12318643682947984	-0.0119	1.5263475830059616	1.3121310467837772	0.0301	1.4996097938424435	0.7648831144252188	0.129	1.4227882309388178	0.19615688046696597	0.023	1.5814272837393433	0.058783461609200276	0.2179	1.6325924330350237	0.08747127265088432	0.1804	1.352648654842379	0.0954671143263734	-0.0119	1.4630118595501986	2.344400460953884	0.0008	1.522313090777141	2.7440211644621515	0.0655	1.5562829030401646	2.5126006866374855	0.1076	1.1455251079627968	2.2519560900626545	-0.01275	0.9687957048457491	1.856347573076195	0.0702	1.2715056400595495	1.8482388233417517	0.1076	1.730851667594936	2.179894354783054	-0.01275	1.8082061021731124	1.7486728657407902	0.0702	1.6971458894930078	1.8665141339686964	0.1076
